#!OML:ASF F:\VICON\USERDATA\INSTALL\rory3\rory3.ASF
:FULLY-SPECIFIED
:DEGREES
43
root 0.5957878839385483 17.822062132577628 0.29565017561466256 -1.1195910160700198 1.7678942390232895 2.1867657667562015
lfemur 10.870216969068943 -2.708253757595564 -25.896793427026417
ltibia 16.44717417937696
lfoot -17.53776555922893 -0.46768652519204235
ltoes -3.1253568740498228
rfemur -26.03478051368704 7.138728757512541 16.46459072876995
rtibia 16.39225603343628
rfoot -11.1647561663466 -13.050146638754715
rtoes -1.0873353103349999
lowerback 9.63481732530907 -1.4947900841592718 -4.4753503937772106
upperback 0.35130693838093713 -2.374244433016992 1.2425279967285296
thorax -4.675677250115073 -1.0826256698999976 4.248270561853069
lowerneck -16.389818310512737 -2.9049608785391543 -2.240145889862922
upperneck 21.862232304715143 -3.636477247135346 0.7351178744293356
head 9.667595671181216 -1.7743325808199875 0.13413554813865952
lclavicle -1.3874280457540977e-15 -1.8436985999529884e-15
lhumerus -22.282685245263156 -2.1571588363742142 81.06149592982196
lradius 31.23887014415066
lwrist 8.066593437371784
lhand -29.219650017619436 22.040024329259623
lfingers 7.125019999999999
lthumb -2.3300007115791193 52.392888285335985
rclavicle -1.3874280458884543e-15 -1.8436986000772167e-15
rhumerus -36.76742670056906 -29.009756404969643 -72.57533729676805
rradius 20.65603184042589
rwrist 7.434744473944795
rhand -18.461659079414005 22.81025633987068
rfingers 7.125019999999999
rthumb 7.626407855529622 -7.273889104250012
44
root 0.5249912526045093 17.75002490265402 1.4113762834025385 -1.3114656610021096 1.7270859623328894 2.15981417290103
lfemur 11.936149726855765 -3.707859886133254 -25.652663186685153
ltibia 19.26732773623646
lfoot -16.565340395925862 -1.215414128606071
ltoes -7.19904291427791
rfemur -27.70396371142494 4.939036823957262 17.8838454122798
rtibia 22.381925517749696
rfoot -9.014083322215109 -10.130984955066712
rtoes -1.7824821680418985
lowerback 9.482514745409093 -1.4920334265171717 -4.519453598423846
upperback 0.3367288061597016 -2.3559346062668807 1.363423864939731
thorax -4.597651355993031 -1.0781035587639831 4.308861665835951
lowerneck -16.495065258349946 -2.7744173452027794 -2.2217520964263278
upperneck 22.0298541095336 -3.3808278620392276 0.6228716185980591
head 9.747712787897202 -1.6797322820899279 0.11187916818907684
lclavicle -1.3874280457581063e-15 -1.843698599958792e-15
lhumerus -22.730577501871636 -1.8523746057624706 81.22259553534872
lradius 31.249337682340673
lwrist 8.103489377066833
lhand -30.017261850449437 21.74716204755489
lfingers 7.125019999999999
lthumb -3.233440741184356 51.787282327514966
rclavicle -1.3874280458918979e-15 -1.8436986000824496e-15
rhumerus -37.31892711281646 -30.33546048487342 -70.9214530012005
rradius 19.915117139829757
rwrist 9.032248455600282
rhand -18.358750683588564 22.864832606566186
rfingers 7.125019999999999
rthumb 7.732484633439107 -7.218643305579886
45
root 0.4495295212280775 17.72405310420928 2.8700385570975246 -1.7207708829379689 1.5848611133896748 1.619965704965113
lfemur 12.549871883309025 -4.9560149327846466 -24.942680646453695
ltibia 22.752359015042412
lfoot -14.361497134742553 -2.723541513837832
ltoes -10.677628547112695
rfemur -27.392592672031014 5.039161675945911 19.171343658548928
rtibia 26.594465033462207
rfoot -7.642884362822832 -9.22883313882906
rtoes -2.6341673456130374
lowerback 9.41426353549462 -1.491155528068829 -4.13129062017232
upperback 0.2571887804360711 -2.2704523081454226 1.5836101817666186
thorax -4.70049217069406 -1.0671799422509392 4.17967917882367
lowerneck -16.544210465179965 -2.6401468299022226 -2.1875440776018316
upperneck 22.278561296408444 -3.1122923097505324 0.44634439868993825
head 9.862365015857897 -1.5864395041947412 0.06650167734618448
lclavicle -1.3874280457576728e-15 -1.843698599960364e-15
lhumerus -23.67116810162022 -1.3983052096828246 81.57694972142454
lradius 31.28513705885897
lwrist 7.6918202721454225
lhand -30.21836883744657 21.413790541842967
lfingers 7.125019999999999
lthumb -3.2628549273776386 51.70003777801928
rclavicle -1.387428045888046e-15 -1.8436986000811097e-15
rhumerus -37.56901343477251 -31.32704716761515 -69.58268648809467
rradius 19.267006796290598
rwrist 10.655791399883018
rhand -18.26169375777168 22.756716633973593
rfingers 7.125019999999999
rthumb 7.794016673714032 -7.373322070791359
46
root 0.380977640105853 17.833468558037403 4.157994229861798 -2.1763016292528095 1.6577930896603743 0.22648193232286706
lfemur 11.874481338831396 -6.137859381383066 -23.344101671244772
ltibia 27.990547591456693
lfoot -9.956473328439836 -5.080935702323391
ltoes -15.555671175924568
rfemur -26.221505980238753 5.160899166967042 21.10537580424583
rtibia 28.69200028388379
rfoot -5.873959248188574 -7.095532110606683
rtoes -0.8607008929557987
lowerback 9.29288286358066 -1.521065859315003 -2.771568308207996
upperback 0.09800308668408833 -2.133832465156626 1.9831569254536807
thorax -4.924474670229226 -1.0153388474581462 3.83888398669999
lowerneck -16.499999633666757 -2.520555364759681 -2.148412963107234
upperneck 22.482523501682863 -2.890592457132655 0.2943983495671257
head 9.959094844416427 -1.5161113954513805 0.031786563280431446
lclavicle -1.3874280457585116e-15 -1.8436985999632385e-15
lhumerus -25.291323295543844 -0.7264828968722563 81.90731498930674
lradius 31.26801153544596
lwrist 7.3353778045594265
lhand -30.48688274321376 20.717655854264404
lfingers 7.125019999999999
lthumb -3.613741330049777 50.95471714444498
rclavicle -1.3874280458884835e-15 -1.843698600083496e-15
rhumerus -37.52411637753315 -31.861396695585988 -68.61034253891879
rradius 18.558973192103437
rwrist 12.18357282022565
rhand -18.21919253882728 22.517679453424968
rfingers 7.125019999999999
rthumb 7.831343306251641 -7.575842829062864
